<svg aria-hidden="true" style="width:0;height:0;position:absolute;overflow:hidden" xmlns="http://www.w3.org/2000/svg"><defs><symbol id="icon-loader" viewBox="0 0 88 80"><path d="M85.88 19.282A41.687 41.687 0 0 0 80 16.78v49.354c-4.56-1.682-9.24-2.543-14-2.543-7.6 0-15.12 2.215-22 6.482V20.43c-6.48-3.816-13.96-6.072-22-6.072-7.16 0-13.92 1.805-19.88 4.923C.8 19.94 0 21.374 0 22.892v49.56c0 2.379 1.88 4.06 4 4.06.64 0 1.28-.163 1.92-.492 4.84-2.584 10.28-4.225 16.08-4.225 8.28 0 15.92 3.364 22 8.205 6.08-4.841 13.72-8.205 22-8.205 5.8 0 11.24 1.64 16.08 4.266.64.329 1.28.493 1.92.493 2.08 0 4-1.682 4-4.062v-49.6c0-1.518-.8-2.953-2.12-3.61ZM36 66.133c-4.56-1.682-9.24-2.543-14-2.543s-9.44.861-14 2.543V25.477a34.84 34.84 0 0 1 14-2.913c4.8 0 9.56 1.026 14 2.954v40.615ZM72 0 52 20.513v38.974l20-18.461V0Z" fill="#fff"/></symbol></defs></svg>